<?xml version="1.0" encoding="utf-8"?>
<!-- Generator: Adobe Illustrator 19.0.0, SVG Export Plug-In . SVG Version: 6.00 Build 0)  -->
<svg version="1.1" id="Layer_1" xmlns="http://www.w3.org/2000/svg" xmlns:xlink="http://www.w3.org/1999/xlink" x="0px" y="0px"
	 viewBox="0 0 361 78" style="enable-background:new 0 0 361 78;" xml:space="preserve">
<style type="text/css">
	.st0{fill:#757677;}
	.st1{font-family:'HelveticaNeue';}
	.st2{font-size:39.2124px;}
	.st3{fill:#9DCD5B;}
	.st4{fill:#62A344;}
	.st5{fill:#67BC45;}
	.st6{fill:url(#XMLID_154_);}
	.st7{fill:#FEEB00;}
	.st8{fill:#A2A336;}
	.st9{fill:#D9E147;}
</style>
<text id="XMLID_100_" transform="matrix(1 0 0 1 75.2705 51.9394)" class="st0 st1 st2">Analytics Crops</text>
<g id="XMLID_92_">
	<path id="XMLID_99_" class="st3" d="M56.2,17h-6.8c-1.9,0-3.5,1.6-3.5,3.5v37.2h10.3c1.9,0,3.5-1.6,3.5-3.5V20.6
		C59.7,18.6,58.1,17,56.2,17z"/>
	<path id="XMLID_98_" class="st4" d="M56.2,17.6h-6.8c-1.9,0-3.5,1.6-3.5,3.5v37.2h10.3c1.9,0,3.5-1.6,3.5-3.5V21.1
		C59.7,19.2,58.1,17.6,56.2,17.6z"/>
	<path id="XMLID_97_" class="st5" d="M56.2,17.3h-6.8c-1.9,0-3.5,1.6-3.5,3.5V58h10.3c1.9,0,3.5-1.6,3.5-3.5V20.9
		C59.7,18.9,58.1,17.3,56.2,17.3z"/>
	<linearGradient id="XMLID_154_" gradientUnits="userSpaceOnUse" x1="40.4201" y1="44.1735" x2="54.4615" y2="44.1735">
		<stop  offset="0" style="stop-color:#4F9637"/>
		<stop  offset="1" style="stop-color:#68BD46"/>
	</linearGradient>
	<path id="XMLID_96_" class="st6" d="M45.9,58h10.3c1.9,0,3.5-1.6,3.5-3.5V43L45.9,30.3V58z"/>
	<path id="XMLID_95_" class="st7" d="M35.7,30.3c-1.9,0-3.5,1.6-3.5,3.5v10.1h-9.3c-1.7,0-3.1,1.2-3.5,2.8v7.6
		c0,0.6,0.1,1.1,0.4,1.5c0.6,1.1,1.8,1.8,3.1,1.8h12.8h0.1h10.1V30.3H35.7z"/>
	<path id="XMLID_94_" class="st8" d="M35.7,30.8c-1.9,0-3.5,1.6-3.5,3.5v10.1h-9.3c-1.7,0-3.1,1.2-3.5,2.8v7.6
		c0,0.6,0.1,1.1,0.4,1.5c0.6,1.1,1.8,1.8,3.1,1.8h12.8h0.1h10.1V30.8H35.7z"/>
	<path id="XMLID_93_" class="st9" d="M35.7,30.5c-1.9,0-3.5,1.6-3.5,3.5v10.1h-9.3c-1.7,0-3.1,1.2-3.5,2.8v7.6
		c0,0.6,0.1,1.1,0.4,1.5c0.6,1.1,1.8,1.8,3.1,1.8h12.8h0.1h10.1V30.5H35.7z"/>
</g>
</svg>
